# xmcd
#
# Track frame offsets:
#	150
#	14910
#	31944
#	50109
#	67116
#	81358
#	105460
#	126661
#	143767
#	162644
#	174971
#	192044
#	207993
#	229327
#	242344
#	256453
#	269210
#	288116
#	303431
#	319153
#
# Disc length: 4459 seconds
#
# Revision: 0
# Processed by: cddbd v1.5.2PL0 Copyright (c) Steve Scherf et al.
# Submitted via: EasyCDDAExtractor 15.2.1.1
#
DISCID=33116914
DTITLE=eysuhl™ Bryan Adams - Bryan Adams [2010 Polydor 275531] Bare Bones (Gre
DTITLE=atest Hits Live)
DYEAR=2010
DGENRE=Pop
TTITLE0=You've Been A Friend To Me
TTITLE1=Here I Am
TTITLE2=I'm Ready
TTITLE3=Let's Make A Night To Remember
TTITLE4=It Ain't A Party (If You Can't Come 'Round)
TTITLE5=(Everything I Do) I Do It For You
TTITLE6=Cuts Like A Knife
TTITLE7=Please Forgive Me
TTITLE8=Summer Of 69
TTITLE9=Walk On By
TTITLE10=Cloud Number Nine
TTITLE11=It's Only Love
TTITLE12=Heaven
TTITLE13=The Right Place
TTITLE14=The Way You Make Me Feel
TTITLE15=Only Thing That Looks Good On Me Is You
TTITLE16=You're Still Beautiful To Me
TTITLE17=Straight From The Heart
TTITLE18=I Still Miss You...A Little Bit
TTITLE19=All For Love
EXTD=
EXTT0=
EXTT1=
EXTT2=
EXTT3=
EXTT4=
EXTT5=
EXTT6=
EXTT7=
EXTT8=
EXTT9=
EXTT10=
EXTT11=
EXTT12=
EXTT13=
EXTT14=
EXTT15=
EXTT16=
EXTT17=
EXTT18=
EXTT19=
PLAYORDER=
